<svg width="220" height="191" viewBox="0 0 220 191" fill="none" xmlns="http://www.w3.org/2000/svg">
<path fill-rule="evenodd" clip-rule="evenodd" d="M173.803 59.8983C177.951 43.5243 183.166 13.1605 164.783 2.86617C146.486 -7.38326 122.675 12.2565 110.102 24.0453C97.5656 12.374 73.0862 -7.18183 54.7186 3.14517C36.4284 13.429 42.0687 43.2894 46.3093 59.7661C29.2476 64.4728 0 74.6105 0 95.3229C0 115.977 29.2172 127.006 46.1779 131.708C41.9216 148.276 36.5637 177.71 54.8773 187.971C73.3135 198.296 97.7167 179.206 110.406 167.288C123.06 179.146 146.642 198.362 164.943 188.072C183.301 177.75 178.52 147.793 174.279 131.221C190.72 126.508 220 115.719 220 95.3229C220 74.8095 190.596 64.5896 173.803 59.8983ZM171.719 122.438C168.934 113.877 165.176 104.773 160.579 95.3685C164.967 86.1858 168.579 77.1992 171.286 68.6931C183.597 72.1598 210.602 80.0826 210.602 95.3229C210.602 110.707 184.687 118.704 171.719 122.438ZM160.233 180.172C146.579 187.848 126.295 169.473 116.951 160.74C123.15 154.155 129.345 146.498 135.392 137.997C146.028 137.081 156.075 135.582 165.188 133.536C168.172 145.258 173.948 172.46 160.233 180.172ZM59.5732 180.062C45.9172 172.414 52.1589 146.149 55.2902 133.945C64.3012 135.881 74.2764 137.274 84.9376 138.114C91.0235 146.432 97.3984 154.079 103.822 160.776C95.8855 168.233 73.293 187.746 59.5732 180.062ZM9.39759 95.3229C9.39759 79.8821 36.2418 72.0165 48.833 68.5587C51.5864 77.2558 55.1976 86.3496 59.5557 95.5455C55.1412 104.878 51.4783 114.116 48.6996 122.916C36.6937 119.578 9.39759 110.773 9.39759 95.3229ZM59.4271 11.0452C73.139 3.33632 94.4145 22.1107 103.517 30.5609C97.1256 37.2269 90.8094 44.8159 84.7755 53.087C74.4289 54.0185 64.5242 55.5141 55.4187 57.5182C52.0025 44.2291 45.7301 18.7458 59.4271 11.0452ZM142.115 63.0087C149.134 63.8689 155.86 65.0135 162.174 66.4136C160.279 72.3155 157.916 78.487 155.133 84.8135C151.099 77.3792 146.769 70.0941 142.115 63.0087ZM110.105 37.0841C114.44 41.6451 118.781 46.7384 123.052 52.2642C114.389 51.866 105.712 51.8646 97.0493 52.2583C101.324 46.7838 105.703 41.6981 110.105 37.0841ZM64.9477 84.8069C62.2108 78.5025 59.8692 72.3038 57.9569 66.3174C64.234 64.9532 70.928 63.8381 77.902 62.9918C73.2351 70.0617 68.9121 77.344 64.9477 84.8069ZM78.1022 128.306C70.8979 127.525 64.1026 126.466 57.8274 125.14C59.7699 119.048 62.1631 112.716 64.9584 106.275C68.9773 113.816 73.3663 121.169 78.1022 128.306ZM110.365 154.207C105.911 149.538 101.468 144.375 97.1285 138.821C105.841 139.153 114.569 139.154 123.281 138.776C118.997 144.431 114.671 149.602 110.365 154.207ZM155.222 105.948C158.163 112.458 160.642 118.756 162.611 124.744C156.232 126.158 149.345 127.297 142.088 128.143C146.777 120.923 151.176 113.525 155.222 105.948ZM130.147 129.249C116.821 130.174 103.412 130.164 90.0812 129.325C82.5066 118.578 75.7636 107.276 69.9431 95.5426C75.7357 83.8336 82.4296 72.5535 89.9683 61.8238C103.308 60.8445 116.731 60.8416 130.071 61.8296C137.545 72.5587 144.228 83.8093 150.155 95.4126C144.299 107.116 137.57 118.419 130.147 129.249ZM160.089 10.7739C173.804 18.4575 167.699 45.7464 164.703 57.6129C155.576 55.567 145.664 54.0449 135.288 53.0987C129.242 44.7384 122.979 37.1361 116.691 30.5562C125.91 21.9239 146.506 3.16538 160.089 10.7739Z" fill="#53C1DE"/>
<mask id="mask0_42_14" style="mask-type:luminance" maskUnits="userSpaceOnUse" x="89" y="77" width="41" height="39">
<path d="M89 77H92.3099C97.4635 77 102.406 79.0473 106.05 82.6915C109.695 86.3357 111.742 91.2783 111.742 96.432C111.742 101.586 109.695 106.528 106.05 110.173C102.406 113.817 97.4635 115.864 92.3099 115.864H89V107.323H92.3099C95.1982 107.323 97.9682 106.175 100.011 104.133C102.053 102.09 103.2 99.3204 103.2 96.432C103.2 93.5437 102.053 90.7737 100.011 88.7313C97.9682 86.6889 95.1982 85.5416 92.3099 85.5416H89V77ZM104.482 77H118.148C120.4 77 122.606 77.6415 124.506 78.8495C126.406 80.0574 127.923 81.7818 128.879 83.8207C129.835 85.8596 130.19 88.1287 129.903 90.3621C129.616 92.5956 128.699 94.7011 127.258 96.432C128.699 98.163 129.616 100.268 129.903 102.502C130.19 104.735 129.835 107.004 128.879 109.043C127.923 111.082 126.406 112.807 124.506 114.015C122.606 115.223 120.4 115.864 118.148 115.864H104.482C107.845 113.758 110.603 110.814 112.488 107.323H118.148C118.583 107.323 119.013 107.237 119.415 107.071C119.816 106.904 120.181 106.66 120.488 106.353C120.796 106.046 121.04 105.681 121.206 105.279C121.372 104.878 121.458 104.447 121.458 104.013C121.458 103.578 121.372 103.148 121.206 102.746C121.04 102.344 120.796 101.98 120.488 101.672C120.181 101.365 119.816 101.121 119.415 100.955C119.013 100.788 118.583 100.703 118.148 100.703H114.838C115.373 97.8808 115.373 94.9833 114.838 92.1613H118.148C118.583 92.1613 119.013 92.0756 119.415 91.9093C119.816 91.743 120.181 91.4992 120.488 91.1918C120.796 90.8845 121.04 90.5196 121.206 90.118C121.372 89.7165 121.458 89.2861 121.458 88.8514C121.458 88.4167 121.372 87.9863 121.206 87.5848C121.04 87.1832 120.796 86.8183 120.488 86.511C120.181 86.2036 119.816 85.9598 119.415 85.7935C119.013 85.6272 118.583 85.5416 118.148 85.5416H112.488C110.603 82.0496 107.845 79.1065 104.482 77Z" fill="white"/>
</mask>
<g mask="url(#mask0_42_14)">
<path d="M34.3341 33.4381V161.561H162.457L34.3341 33.4381Z" fill="url(#paint0_linear_42_14)"/>
<path d="M58.2504 33.4381H186.374V161.561L58.2504 33.4381Z" fill="url(#paint1_linear_42_14)"/>
<path d="M46.2922 33.4381L174.416 161.561" stroke="url(#paint2_linear_42_14)" stroke-width="137.931"/>
</g>
<defs>
<linearGradient id="paint0_linear_42_14" x1="91.9896" y1="104.333" x2="110.354" y2="122.697" gradientUnits="userSpaceOnUse">
<stop stop-color="#F9A03C"/>
<stop offset="1" stop-color="#F7974E"/>
</linearGradient>
<linearGradient id="paint1_linear_42_14" x1="108.218" y1="72.7293" x2="135.124" y2="99.6351" gradientUnits="userSpaceOnUse">
<stop stop-color="#B84E51"/>
<stop offset="1" stop-color="#F68E48"/>
</linearGradient>
<linearGradient id="paint2_linear_42_14" x1="89.8542" y1="76.1459" x2="126.156" y2="112.875" gradientUnits="userSpaceOnUse">
<stop stop-color="#F26D58"/>
<stop offset="1" stop-color="#F9A03C"/>
</linearGradient>
</defs>
</svg>
